<svg xmlns="http://www.w3.org/2000/svg" xmlns:xlink="http://www.w3.org/1999/xlink" width="19.745" height="18.891" viewBox="0 0 19.745 18.891">
  <defs>
    <clipPath id="clip-path">
      <rect id="사각형_53" data-name="사각형 53" width="19.745" height="18.891"  fill="#969696"/>
    </clipPath>
  </defs>
  <g id="그룹_102" data-name="그룹 102" transform="translate(0 0)" fill="#969696">
    <g id="그룹_101" data-name="그룹 101" transform="translate(0 0)" clip-path="url(#clip-path)" fill="#969696">
      <path id="패스_62" data-name="패스 62" d="M17.633,6.713l-.042,0a9.266,9.266,0,0,0-2.053-4.053A7.508,7.508,0,0,0,9.872,0,7.507,7.507,0,0,0,4.206,2.656,9.27,9.27,0,0,0,2.152,6.709l-.041,0A3.013,3.013,0,0,0,.03,10.083a3.367,3.367,0,0,0,2.518,2.785A9.207,9.207,0,0,0,4.736,16.2a7.546,7.546,0,0,0,3.79,2.015.982.982,0,0,0,1.843.073.975.975,0,0,0-.05-.853.982.982,0,0,0-1.637-.12,6.643,6.643,0,0,1-3.313-1.773,8.173,8.173,0,0,1-1.957-2.964,1.834,1.834,0,0,0,.17-.889,3.4,3.4,0,0,0-.1-.756A8.463,8.463,0,0,1,3.3,9.8c-.027-.275-.04-.556-.04-.835A7.613,7.613,0,0,1,7.94,1.691,5.79,5.79,0,0,1,9.872,1.36c3.646,0,6.613,3.41,6.613,7.6q0,.176-.007.35c-.005.158-.017.321-.032.485a8.544,8.544,0,0,1-.186,1.134,3.331,3.331,0,0,0-.1.756,3.27,3.27,0,0,0,.017.348c.055.511.248.793.573.84a.733.733,0,0,0,.079.009,1.435,1.435,0,0,0,.18.005,3.305,3.305,0,0,0,2.7-2.8,3.013,3.013,0,0,0-2.081-3.37" transform="translate(0 0)" fill="#969696"/>
    </g>
  </g>
</svg>
