<svg xmlns="http://www.w3.org/2000/svg" xmlns:xlink="http://www.w3.org/1999/xlink" width="15.75" height="16.656" viewBox="0 0 15.75 16.656">
  <defs>
    <clipPath id="clip-path">
      <rect id="사각형_51" data-name="사각형 51" width="15.75" height="16.655" fill="#2e457c"/>
    </clipPath>
  </defs>
  <g id="그룹_98" data-name="그룹 98" transform="translate(0 0)">
    <g id="그룹_97" data-name="그룹 97" transform="translate(0 0)" clip-path="url(#clip-path)">
      <path id="패스_49" data-name="패스 49" d="M12.335,10.775h0a.105.105,0,0,1,.1.078.1.1,0,0,0-.1-.078" transform="translate(-6.168 -5.388)" fill="#2e457c"/>
      <path id="패스_50" data-name="패스 50" d="M15.488,22.461a.1.1,0,0,1-.074.038.1.1,0,0,0,.074-.038" transform="translate(-7.707 -11.231)" fill="#2e457c"/>
      <path id="패스_51" data-name="패스 51" d="M10.487,15.947v-.636a.1.1,0,0,1,.03-.073.1.1,0,0,0-.03.073v.636a.1.1,0,0,0,.1.1.1.1,0,0,1-.1-.1" transform="translate(-5.244 -7.619)" fill="#2e457c"/>
      <path id="패스_52" data-name="패스 52" d="M14.473,17.8l.187-.734h-.375Z" transform="translate(-7.143 -8.533)" fill="#2e457c"/>
      <path id="패스_53" data-name="패스 53" d="M10.846,10.775a.1.1,0,0,0-.082.041.1.1,0,0,1,.082-.041" transform="translate(-5.382 -5.388)" fill="#2e457c"/>
      <path id="패스_54" data-name="패스 54" d="M24.919,10.885c0-.017,0-.035-.009-.049a.109.109,0,0,0-.025-.021.1.1,0,0,1,.024.021c.011.014.007.032.01.049" transform="translate(-12.443 -5.408)" fill="#2e457c"/>
      <path id="패스_55" data-name="패스 55" d="M14.771,0H2.926a.98.98,0,0,0-.979.98V2.07H.637a.637.637,0,1,0,0,1.274H1.946V5.817H.637a.637.637,0,1,0,0,1.274H1.946V9.564H.637a.637.637,0,1,0,0,1.274H1.946v2.473H.637a.637.637,0,1,0,0,1.274H1.946v1.09a.98.98,0,0,0,.979.98H14.771a.98.98,0,0,0,.979-.98V.98A.98.98,0,0,0,14.771,0M12.7,8.328a.205.205,0,0,1-.2.2h-.7l-.712,2.686a.205.205,0,0,1-.2.15h-.753a.206.206,0,0,1-.2-.154L9.238,8.533H8.595l-.689,2.682a.2.2,0,0,1-.2.154H6.954a.206.206,0,0,1-.2-.153l-.7-2.683h-.7a.205.205,0,0,1-.2-.2V7.692a.205.205,0,0,1,.2-.2h.429l-.51-1.943A.2.2,0,0,1,5.3,5.367a.206.206,0,0,1,.162-.081h.7a.206.206,0,0,1,.2.155l.513,2.045h.9L8.3,5.441a.2.2,0,0,1,.2-.154h.835a.207.207,0,0,1,.2.155l.513,2.045h.9l.521-2.045a.2.2,0,0,1,.2-.155h.711a.205.205,0,0,1,.2.258l-.516,1.942h.427a.205.205,0,0,1,.2.2Z" transform="translate(0 0)" fill="#2e457c"/>
      <path id="패스_56" data-name="패스 56" d="M16.83,10.834a.1.1,0,0,1,.087-.058.1.1,0,0,0-.087.058" transform="translate(-8.415 -5.388)" fill="#2e457c"/>
      <rect id="사각형_50" data-name="사각형 50" height="1.284" transform="translate(10.661 8.411)" fill="#2e457c"/>
      <path id="패스_57" data-name="패스 57" d="M23.147,10.854a.1.1,0,0,1,.1-.078.1.1,0,0,0-.1.078" transform="translate(-11.574 -5.388)" fill="#2e457c"/>
      <path id="패스_58" data-name="패스 58" d="M21,17.066h-.376l.188.734Z" transform="translate(-10.315 -8.533)" fill="#2e457c"/>
      <path id="패스_59" data-name="패스 59" d="M17.736,14.782h.1l-.048-.192Z" transform="translate(-8.868 -7.295)" fill="#2e457c"/>
    </g>
  </g>
</svg>
