<svg xmlns="http://www.w3.org/2000/svg" width="31.267" height="32.533" viewBox="0 0 31.267 32.533">
  <g id="그룹_511" data-name="그룹 511" transform="translate(-188.16 -1428.779)">
    <g id="그룹_508" data-name="그룹 508" transform="translate(188.753 1429.279)">
      <g id="그룹_510" data-name="그룹 510">
        <g id="그룹_509" data-name="그룹 509" transform="translate(0 0)">
          <path id="패스_249" data-name="패스 249" d="M87.881,31.529a3.027,3.027,0,0,1-1.3-.3,4.182,4.182,0,0,1-2.144-2.606c-.6-2.071.572-5.171,2.017-6.593H71.49a.38.38,0,0,1,0-.76H86.682a.639.639,0,0,1,.593.424.7.7,0,0,1-.175.772c-1.315,1.181-2.471,4.1-1.933,5.944a3.413,3.413,0,0,0,1.74,2.131,2.082,2.082,0,0,0,1.73.077c1.385-.587,2.09-2.41,2.387-3.446a22.867,22.867,0,0,0,.513-8.737C90.9,12.588,91.518,4.647,93.869.761H74.819a.437.437,0,0,0-.308.122,8.693,8.693,0,0,0-2.056,6.156,33.538,33.538,0,0,0,.4,4.513c.127.947.257,1.927.334,2.9a14.065,14.065,0,0,1-.551,5.712.38.38,0,0,1-.718-.252,13.327,13.327,0,0,0,.511-5.4c-.075-.954-.2-1.923-.33-2.86a34.141,34.141,0,0,1-.4-4.616A9.434,9.434,0,0,1,73.979.34,1.192,1.192,0,0,1,74.819,0H94.581a.38.38,0,0,1,.3.607c-2.569,3.45-3.254,11.716-2.593,17.742a23.293,23.293,0,0,1-.538,9.03c-.409,1.424-1.23,3.262-2.821,3.936a2.687,2.687,0,0,1-1.053.213m-1.2-9.5h0Z" transform="translate(-64.799 -0.001)" fill="#969696" stroke="#969696" stroke-width="1"/>
          <path id="패스_250" data-name="패스 250" d="M23.1,249.894H2.766a1.412,1.412,0,0,1-1.1-.54,7.181,7.181,0,0,1-.061-9.069,1.508,1.508,0,0,1,1.23-.658H9.151a.38.38,0,0,1,0,.76H2.839a.757.757,0,0,0-.611.339,6.459,6.459,0,0,0,.034,8.149.656.656,0,0,0,.5.258H23.1a.38.38,0,1,1,0,.76" transform="translate(0 -218.361)" fill="#969696" stroke="#969696" stroke-width="1"/>
          <path id="패스_251" data-name="패스 251" d="M106.241,26.923a.523.523,0,0,1-.486-.327l-.43-1.055-.861-.632a.525.525,0,0,1,0-.847l.861-.632.43-1.056a.525.525,0,0,1,.973,0l.43,1.055.861.632a.525.525,0,0,1,0,.846l-.861.632-.43,1.056a.523.523,0,0,1-.486.327m-1.069-2.437.656.481a.523.523,0,0,1,.175.224l.238.584.238-.583a.525.525,0,0,1,.179-.227l.652-.479-.654-.48a.522.522,0,0,1-.177-.225l-.238-.584-.238.583a.525.525,0,0,1-.179.227Zm.205,1.094,0,0Zm1.731,0,0,0,0,0m-1.73-2.186,0,0Z" transform="translate(-94.997 -20.091)" fill="#969696" stroke="#969696" stroke-width="1"/>
          <path id="패스_252" data-name="패스 252" d="M147.3,59.661l.457.335a.073.073,0,0,1,0,.117l-.457.335a.072.072,0,0,0-.024.031l-.228.558a.073.073,0,0,1-.134,0l-.228-.558a.072.072,0,0,0-.024-.031l-.457-.335a.073.073,0,0,1,0-.117l.457-.335a.072.072,0,0,0,.024-.031l.228-.559a.073.073,0,0,1,.134,0l.228.559a.072.072,0,0,0,.024.031" transform="translate(-133.2 -53.788)" fill="#969696" stroke="#969696" stroke-width="1"/>
          <path id="패스_253" data-name="패스 253" d="M121.639,122.507H106.694a.38.38,0,0,1,0-.76h14.944a.38.38,0,1,1,0,.76" transform="translate(-96.879 -110.942)" fill="#969696" stroke="#969696" stroke-width="1"/>
          <path id="패스_254" data-name="패스 254" d="M121.639,150.646H106.694a.38.38,0,1,1,0-.76h14.944a.38.38,0,1,1,0,.76" transform="translate(-96.879 -136.584)" fill="#969696" stroke="#969696" stroke-width="1"/>
          <path id="패스_255" data-name="패스 255" d="M121.639,178.78H106.694a.38.38,0,1,1,0-.76h14.944a.38.38,0,1,1,0,.76" transform="translate(-96.879 -162.221)" fill="#969696" stroke="#969696" stroke-width="1"/>
          <path id="패스_256" data-name="패스 256" d="M121.639,206.919H106.694a.38.38,0,1,1,0-.76h14.944a.38.38,0,1,1,0,.76" transform="translate(-96.879 -187.863)" fill="#969696" stroke="#969696" stroke-width="1"/>
        </g>
      </g>
    </g>
  </g>
</svg>
